<?xml version="1.0" encoding="iso-8859-1"?>
<!-- Generator: Adobe Illustrator 19.0.0, SVG Export Plug-In . SVG Version: 6.00 Build 0)  -->
<svg version="1.1" id="Layer_1" xmlns="http://www.w3.org/2000/svg" xmlns:xlink="http://www.w3.org/1999/xlink" x="0px" y="0px"
	 viewBox="0 0 512 512" fill="gray" style="enable-background:new 0 0 512 512;" xml:space="preserve">
<g>
	<g>
		<path d="M506.409,313.559l-50.625-25.318c3.695-22.645,3.498-45.438-0.573-67.968l50.151-26.193
			c4.673-2.439,6.689-8.062,4.634-12.918l-23.712-55.876c-2.065-4.845-7.479-7.306-12.518-5.645l-53.688,17.882
			c-13.368-18.578-29.63-34.554-48.481-47.626l16.944-54.004c1.581-5.028-0.968-10.433-5.859-12.409L326.405,0.738
			c-4.9-1.975-10.473,0.143-12.844,4.856L288.239,56.22c-22.645-3.696-45.428-3.494-67.965,0.572L194.082,6.636
			c-2.45-4.678-8.092-6.699-12.923-4.628l-55.871,23.716c-4.861,2.061-7.311,7.504-5.651,12.508l17.893,53.689
			c-18.584,13.372-34.56,29.635-47.632,48.485l-54.004-16.949c-5.019-1.575-10.423,0.973-12.409,5.864L0.74,185.604
			c-1.976,4.889,0.128,10.477,4.851,12.838l50.625,25.319c-3.685,22.66-3.497,45.452,0.573,67.968L6.638,317.927
			c-4.673,2.439-6.689,8.066-4.634,12.918l23.722,55.876c2.065,4.845,7.509,7.305,12.518,5.645l53.678-17.882
			c13.377,18.573,29.64,34.549,48.491,47.627l-16.954,54.003c-1.581,5.029,0.968,10.433,5.859,12.41l56.277,22.738
			c1.245,0.5,2.529,0.736,3.794,0.736c3.725,0,7.282-2.069,9.05-5.592l25.322-50.62c22.645,3.695,45.438,3.512,67.965-0.578
			l26.192,50.157c2.45,4.682,8.092,6.684,12.923,4.629l55.881-23.718c4.861-2.059,7.311-7.504,5.651-12.508l-17.893-53.688
			c18.575-13.373,34.551-29.635,47.631-48.486l53.994,16.95c5.049,1.599,10.433-0.968,12.409-5.865l22.744-56.28
			C513.236,321.509,511.132,315.921,506.409,313.559z M473.262,366.442l-52.325-16.424c-4.387-1.383-9.1,0.356-11.56,4.204
			c-13.704,21.429-31.359,39.405-52.483,53.431c-3.814,2.523-5.454,7.291-4.011,11.624l17.339,52.022l-38.69,16.421l-25.382-48.605
			c-2.124-4.05-6.679-6.19-11.155-5.197c-24.759,5.455-49.953,5.677-74.88,0.642c-4.486-0.904-9.001,1.305-11.056,5.39
			l-24.542,49.054l-38.957-15.744l16.43-52.334c1.373-4.356-0.356-9.095-4.209-11.554c-21.43-13.695-39.411-31.35-53.431-52.479
			c-2.529-3.814-7.301-5.462-11.629-4.006l-52.018,17.329l-16.421-38.68l48.6-25.387c4.051-2.113,6.185-6.684,5.197-11.144
			c-5.454-24.745-5.671-49.943-0.632-74.897c0.899-4.476-1.304-9.004-5.394-11.05L23,184.521l15.739-38.962l52.334,16.427
			c4.387,1.372,9.09-0.361,11.56-4.204c13.694-21.431,31.349-39.407,52.483-53.427c3.814-2.529,5.454-7.297,4.011-11.629
			l-17.34-52.028l38.68-16.416l25.382,48.605c2.124,4.046,6.709,6.15,11.145,5.197c24.779-5.457,49.963-5.676,74.891-0.637
			c4.525,0.953,9.02-1.298,11.056-5.388l24.542-49.059l38.957,15.743l-16.421,52.334c-1.363,4.358,0.356,9.095,4.209,11.556
			c21.42,13.693,39.401,31.353,53.421,52.483c2.51,3.802,7.282,5.433,11.629,4.005l52.028-17.328l16.411,38.68l-48.6,25.381
			c-4.051,2.114-6.185,6.685-5.197,11.146c5.464,24.768,5.671,49.967,0.632,74.889c-0.899,4.481,1.304,9.011,5.394,11.056
			l49.055,24.537L473.262,366.442z"/>
	</g>
</g>
<g>
	<g>
		<path d="M256,175.072c-44.628,0-80.937,36.309-80.937,80.937c0,44.627,36.309,80.937,80.937,80.937
			c44.628,0,80.937-36.31,80.937-80.937C336.937,211.381,300.628,175.072,256,175.072z M256,316.712
			c-33.474,0-60.703-27.229-60.703-60.703c0-33.475,27.229-60.703,60.703-60.703c33.473,0,60.703,27.228,60.703,60.703
			C316.703,289.483,289.473,316.712,256,316.712z"/>
	</g>
</g>
<g>
</g>
<g>
</g>
<g>
</g>
<g>
</g>
<g>
</g>
<g>
</g>
<g>
</g>
<g>
</g>
<g>
</g>
<g>
</g>
<g>
</g>
<g>
</g>
<g>
</g>
<g>
</g>
<g>
</g>
</svg>
