<svg width="19" height="20" viewBox="0 0 19 20" xmlns="http://www.w3.org/2000/svg">
<path d="M18.3999 8.03544L10.658 0.999954C10.3725 0.738817 9.99966 0.593994 9.61279 0.593994C9.22592 0.593994 8.85307 0.738817 8.56763 0.999954L0.825698 8.03544C0.667186 8.18045 0.540587 8.35687 0.453951 8.55346C0.367316 8.75006 0.32254 8.96253 0.322472 9.17737V18.0903C0.316177 18.4806 0.453994 18.8596 0.709569 19.1548C0.854622 19.3197 1.03331 19.4517 1.23362 19.5419C1.43392 19.632 1.65121 19.6782 1.87086 19.6774H6.51602C6.72135 19.6774 6.91827 19.5958 7.06346 19.4506C7.20865 19.3054 7.29021 19.1085 7.29021 18.9032V14.258C7.29021 14.0527 7.37178 13.8558 7.51697 13.7106C7.66216 13.5654 7.85908 13.4838 8.06441 13.4838H11.1612C11.3665 13.4838 11.5634 13.5654 11.7086 13.7106C11.8538 13.8558 11.9354 14.0527 11.9354 14.258V18.9032C11.9354 19.1085 12.0169 19.3054 12.1621 19.4506C12.3073 19.5958 12.5042 19.6774 12.7096 19.6774H17.3547C17.6115 19.6796 17.8647 19.6164 18.0902 19.4935C18.3356 19.3599 18.5406 19.1627 18.6836 18.9226C18.8266 18.6825 18.9024 18.4084 18.9031 18.129V9.17737C18.903 8.96253 18.8583 8.75006 18.7716 8.55346C18.685 8.35687 18.5584 8.18045 18.3999 8.03544Z" fill="gray"/>
</svg>
