<svg width="22" height="24" viewBox="0 0 22 24" fill="none" xmlns="http://www.w3.org/2000/svg">
<path d="M11.0002 24.0082L10.3002 23.4082C9.33518 22.6002 0.90918 15.3232 0.90918 10.0002C0.90918 7.32388 1.97234 4.75719 3.86477 2.86477C5.75719 0.972336 8.32388 -0.0908203 11.0002 -0.0908203C13.6765 -0.0908203 16.2432 0.972336 18.1356 2.86477C20.028 4.75719 21.0912 7.32388 21.0912 10.0002C21.0912 15.3232 12.6652 22.6002 11.7042 23.4122L11.0002 24.0082ZM11.0002 2.09118C8.90331 2.09356 6.89301 2.92759 5.4103 4.4103C3.92759 5.89301 3.09356 7.90331 3.09118 10.0002C3.09118 13.3442 8.27518 18.6862 11.0002 21.1312C13.7252 18.6852 18.9092 13.3402 18.9092 10.0002C18.9068 7.90331 18.0728 5.89301 16.5901 4.4103C15.1073 2.92759 13.097 2.09356 11.0002 2.09118Z" fill="#020e42"/>
<path d="M11 14C10.2089 14 9.43552 13.7654 8.77772 13.3259C8.11993 12.8864 7.60723 12.2616 7.30448 11.5307C7.00173 10.7998 6.92252 9.99556 7.07686 9.21964C7.2312 8.44372 7.61216 7.73098 8.17157 7.17157C8.73098 6.61216 9.44372 6.2312 10.2196 6.07686C10.9956 5.92252 11.7998 6.00173 12.5307 6.30448C13.2616 6.60723 13.8864 7.11992 14.3259 7.77772C14.7654 8.43552 15 9.20888 15 10C15 11.0609 14.5786 12.0783 13.8284 12.8284C13.0783 13.5786 12.0609 14 11 14ZM11 8C10.6044 8 10.2178 8.1173 9.88886 8.33706C9.55996 8.55683 9.30362 8.86918 9.15224 9.23464C9.00087 9.60009 8.96126 10.0022 9.03843 10.3902C9.1156 10.7781 9.30608 11.1345 9.58579 11.4142C9.86549 11.6939 10.2219 11.8844 10.6098 11.9616C10.9978 12.0387 11.3999 11.9991 11.7654 11.8478C12.1308 11.6964 12.4432 11.44 12.6629 11.1111C12.8827 10.7822 13 10.3956 13 10C13 9.46957 12.7893 8.96086 12.4142 8.58579C12.0391 8.21072 11.5304 8 11 8Z" fill="#020e42"/>
</svg>
